<svg width="60" height="60" viewBox="0 0 60 60" fill="none" xmlns="http://www.w3.org/2000/svg">
<path d="M47.8001 19.2L41.5001 17.1V14H26.9001V17.1L20.6001 19.2V26.3H47.8001V19.2Z" fill="#FFC700"/>
<path d="M36.7001 34.2L36.3 36.7C36.6 36.6 37.0001 36.5 37.4001 36.5C38.2001 36.5 38.9 36.7 39.5 37.1L40 34.1H36.7001V34.2Z" fill="#FFC700"/>
<path d="M36.3999 44.2L37.3999 48H40.6999L39.4999 43.6C38.5999 44.3 37.2999 44.5 36.3999 44.2Z" fill="#FFC700"/>
<path d="M40.7999 49.9H37.3999C36.7999 49.9 36.3999 50.4 36.3999 50.9V52.1H41.8999V50.9C41.8999 50.3 41.3999 49.9 40.7999 49.9Z" fill="#FFC700"/>
<path d="M29.2999 50.1H25.8999C25.2999 50.1 24.8999 50.6 24.8999 51.1V52.3H30.3999V51.1C30.3999 50.6 29.8999 50.1 29.2999 50.1Z" fill="#FFC700"/>
<path d="M39.1999 40.4C39.1999 39.3 38.2999 38.5 37.2999 38.5C36.1999 38.5 35.3999 39.4 35.3999 40.4C35.3999 41.4 36.1999 42.3 37.2999 42.3C38.3999 42.4 39.1999 41.5 39.1999 40.4Z" fill="#FFC700"/>
<path d="M18.6001 39.7999V37.2L17.1001 38.5C17.6001 39 18.0001 39.6999 18.1001 40.4C18.3001 40.1999 18.4001 39.9999 18.6001 39.7999Z" fill="#FFC700"/>
<path d="M24.6 44.8C24 45.6 23.1 46.1001 22.1 46.2001H22C21.8 46.2001 21.7 46.2001 21.5 46.2001C20.5 46.2001 19.6 45.8001 18.9 45.2001L18.2 49.1H21.5L22.1 46.2001L24.7 48H29.2999L24.6 44.8Z" fill="#FFC700"/>
<path d="M14.4 39.3C13.3 39.3 12.5 40.2001 12.5 41.2001C12.5 42.3001 13.4 43.1 14.4 43.1C15.5 43.1 16.3 42.2001 16.3 41.2001C16.3 40.3001 15.5 39.3 14.4 39.3Z" fill="#FFC700"/>
<path d="M42.6001 46.2L43.6001 50H46.9001L45.7001 45.6C44.7001 46.3 43.5001 46.4 42.6001 46.2Z" fill="#FFC700"/>
<path d="M23.5 39C23.5 38.9 23.9999 36.6 23.9 36.8L24.4 34.2L27.7 32.2C28.5 32.2 41.1 32.2 40.7 32.2L43.0999 34.3L42.7 36.5L42.2999 38.6C42.5999 38.5 43 38.4 43.4 38.4C44.2 38.4 44.9 38.6 45.5 39V38.8L46 36L47.7999 32.1V28.1H20.6C20.6 28.3 20.3 36 20.2 38.6C21.3 38.3 22.5 38.4 23.5 39Z" fill="#FFC700"/>
<path d="M47.0001 51.8H43.6001C43.0001 51.8 42.6001 52.3 42.6001 52.8V54H48.0001V52.8C48.0001 52.3 47.5001 51.8 47.0001 51.8Z" fill="#FFC700"/>
<path d="M21.7001 51.2H18.3C17.7 51.2 17.3 51.7 17.3 52.2V53.4H22.8V52.2C22.7 51.7 22.3001 51.2 21.7001 51.2Z" fill="#FFC700"/>
<path d="M45.4001 42.4C45.4001 41.3 44.5001 40.5 43.5001 40.5C42.4001 40.5 41.6001 41.4 41.6001 42.4C41.6001 43.4 42.4001 44.3 43.5001 44.3C44.5001 44.3 45.4001 43.4 45.4001 42.4Z" fill="#FFC700"/>
<path d="M21.5 44.3C22.6 44.3 23.4 43.4 23.4 42.4C23.4 39.9 19.5 39.8 19.5 42.4C19.6 43.5 20.5 44.3 21.5 44.3Z" fill="#FFC700"/>
<path d="M0 23V26.3H11.8V18.6H4.4C2.7 20.3 1.7 21.3 0 23ZM6.9 20.2C8.4 20.2 9.7 21.4 9.7 23C9.7 24.6 8.5 25.8 6.9 25.8C5.4 25.8 4.1 24.6 4.1 23C4.1 21.4 5.4 20.2 6.9 20.2Z" fill="#FFC700"/>
<path d="M6.9 24.3C7.7 24.3 8.3 23.7 8.3 22.9C8.3 22.1 7.7 21.5 6.9 21.5C6.2 21.5 5.5 22.1 5.5 22.9C5.5 23.7 6.1 24.3 6.9 24.3Z" fill="#FFC700"/>
<path d="M18.6 20.1H17.2V24.8H18.6V20.1Z" fill="#FFC700"/>
<path d="M15.2999 20.1H13.8999V24.8H15.2999V20.1Z" fill="#FFC700"/>
</svg>
