<svg width="60" height="60" viewBox="0 0 60 60" fill="none" xmlns="http://www.w3.org/2000/svg">
<g id="hand">
<g id="Group">
<path id="Vector" d="M10.0898 43.6485C10.0898 43.2866 10.1565 42.9365 10.2723 42.6068L6.87467 40.6379C6.4321 41.5769 6.18848 42.6016 6.18848 43.6485C6.18848 44.7114 6.42971 45.7169 6.84992 46.6232L10.2595 44.6532C10.1522 44.333 10.0898 43.9942 10.0898 43.6485Z" fill="#4B526A"/>
<path id="Vector_2" d="M7.47217 47.7096C8.64491 49.3855 10.5191 50.5328 12.6666 50.7216V46.7826C11.9682 46.6435 11.34 46.2775 10.8794 45.741L7.47217 47.7096Z" fill="#4B526A"/>
<path id="Vector_3" d="M19.0808 39.5642C17.8831 37.8614 15.9921 36.7709 13.9187 36.5854V40.5154C14.5987 40.6532 15.2163 41.0096 15.677 41.53L19.0808 39.5642Z" fill="#4B526A"/>
<path id="Vector_4" d="M15.2441 43.6486C15.2441 42.5899 14.3603 41.698 13.2927 41.698C12.2186 41.698 11.342 42.5894 11.342 43.6486C11.342 44.6744 12.1758 45.5993 13.2927 45.5993C14.4211 45.5993 15.2441 44.6674 15.2441 43.6486Z" fill="#4B526A"/>
<path id="Vector_5" d="M12.6666 40.5154V36.5854C10.5935 36.7708 8.70167 37.8598 7.50488 39.5564L10.9076 41.5286C11.3645 41.0109 11.9836 40.6536 12.6666 40.5154Z" fill="#4B526A"/>
<path id="Vector_6" d="M35.9089 32.9123C35.3089 32.2544 34.343 32.0882 33.5588 32.5161L26.6178 36.2894C26.1092 36.5674 25.5035 36.5592 24.9997 36.269C24.496 35.9797 24.1862 35.4596 24.1699 34.8792L23.486 10.2854C23.486 8.90863 22.3799 7.80247 21.0202 7.80247C19.6597 7.80247 18.5536 8.90863 18.5536 10.2683V31.0089C18.5536 31.3545 18.2732 31.6349 17.9275 31.6349C17.5819 31.6349 17.3015 31.3545 17.3015 31.0089V10.2683V7.46582C17.3015 6.10615 16.1953 5 14.8357 5C13.4752 5 12.369 6.10616 12.369 7.46582V11.0737V29.9704C12.369 30.316 12.0886 30.5964 11.743 30.5964C11.3974 30.5964 11.117 30.316 11.117 29.9704V11.0737C11.117 9.71319 10.0108 8.60703 8.65116 8.60703C7.29068 8.60703 6.18452 9.71319 6.18452 11.0737V14.3375V31.0089C6.18452 31.3545 5.9041 31.6349 5.55849 31.6349C5.21287 31.6349 4.93246 31.3545 4.93246 31.0089V14.3375C4.93246 12.9778 3.8263 11.8717 2.46664 11.8717C1.10616 11.8717 0 12.9778 0 14.3375L0.95617 50.089C1.03687 53.123 3.47742 55.5 6.51221 55.5H21.8084C23.8471 55.5 25.7187 54.3873 26.692 52.5948L36.1787 35.136C36.5708 34.4138 36.4623 33.5204 35.9089 32.9123ZM13.2926 52.0055C8.68539 52.0055 4.93653 48.2566 4.93653 43.6486C4.93653 39.0947 8.65824 35.2917 13.2926 35.2917C17.9552 35.2917 21.6495 39.1304 21.6495 43.6486C21.6495 48.2566 17.9006 52.0055 13.2926 52.0055Z" fill="#4B526A"/>
<path id="Vector_7" d="M13.9187 46.783V50.7219C16.0666 50.5331 17.9409 49.386 19.1137 47.7102L15.7076 45.7422C15.2495 46.2766 14.6199 46.6436 13.9187 46.783Z" fill="#4B526A"/>
<path id="Vector_8" d="M16.496 43.6488C16.496 43.9935 16.4335 44.3313 16.3252 44.6533L19.7357 46.6239C20.156 45.7174 20.3973 44.7119 20.3973 43.6488C20.3973 42.5996 20.1533 41.5768 19.7113 40.6453L16.3147 42.6076C16.4291 42.9346 16.496 43.2855 16.496 43.6488Z" fill="#4B526A"/>
</g>
</g>
</svg>
