<svg width="60" height="60" viewBox="0 0 60 60" fill="none" xmlns="http://www.w3.org/2000/svg">
<path d="M36.6001 16.875C36.6001 12.075 32.8001 7.475 28.0001 6.675C22.7001 5.775 17.4001 5.775 12.2001 6.675C7.5001 7.475 3.6001 12.075 3.6001 16.875V19.875H36.6001V16.875Z" fill="#FFC700"/>
<path d="M40.2 32.5751V27.3751C40.2 24.9751 37.6 24.5751 36.7 23.9751H36.6V22.4751H3.6V23.9751H3.5L1.6 24.8751C0.6 25.3751 0 26.2751 0 27.3751V32.5751C0 33.6751 0.6 34.5751 1.6 35.0751L3.5 35.9751C3.2 37.7751 2.3 39.4751 1 40.8751C0.5 41.3751 0.5 42.1751 1 42.7751L3.2 45.0751C4 45.8751 3.9 46.3751 5.5 50.8751C5.9 51.9751 7.1 52.6751 8.2 52.3751C10.2 51.9751 12 51.5751 13.8 51.3751C14.4 53.0751 15.9 54.0751 17.5 54.0751H22.7C24.4 54.0751 25.9 53.0751 26.5 51.3751C28.3 51.5751 30.2 51.9751 32.1 52.3751C33.3 52.6751 34.5 51.9751 34.8 50.8751C35.3 49.2751 36 47.1751 36.4 46.1751C36.7 45.1751 37.3 44.8751 39.3 42.7751C39.8 42.2751 39.8 41.4751 39.3 40.8751C38 39.5751 37.1 37.8751 36.8 35.9751C37.6 35.3751 40.2 34.9751 40.2 32.5751ZM3.6 33.8751L2.4 33.2751C2.1 33.1751 1.9 32.8751 1.9 32.4751V27.2751C1.9 26.9751 2.1 26.6751 2.4 26.4751L3.6 25.9751V33.8751ZM7 26.8751C6.7 26.1751 7.2 25.3751 7.8 25.3751H16.9C17.6 25.3751 18 26.1751 17.7 26.8751C16.7 29.2751 14.6 30.7751 12.3 30.7751C10 30.7751 8 29.2751 7 26.8751ZM10 48.1751C8.9 48.1751 8 47.2751 8 46.1751C8 45.0751 8.9 44.1751 10 44.1751C11.1 44.1751 12 45.0751 12 46.1751C12 47.2751 11.1 48.1751 10 48.1751ZM22.7 52.0751H17.5C15.9 52.0751 14.9 50.2751 15.8 48.8751L18.4 45.0751C19.2 43.8751 20.9 43.8751 21.7 45.0751L24.3 48.8751C25.3 50.1751 24.3 52.0751 22.7 52.0751ZM27.8 38.5751C27.5 38.9751 26.9 39.0751 26.4 38.7751C20 33.6751 14 38.5751 13.7 38.7751C13.3 39.0751 12.7 39.0751 12.3 38.6751C12 38.2751 12 37.6751 12.4 37.2751C12.5 37.1751 19.8 31.0751 27.5 37.2751C28.1 37.4751 28.1 38.1751 27.8 38.5751ZM30.2 48.1751C29.1 48.1751 28.2 47.2751 28.2 46.1751C28.2 45.0751 29.1 44.1751 30.2 44.1751C31.3 44.1751 32.2 45.0751 32.2 46.1751C32.1 47.2751 31.2 48.1751 30.2 48.1751ZM33.2 26.8751C32.2 29.2751 30.1 30.7751 27.8 30.7751C25.5 30.7751 23.4 29.2751 22.4 26.8751C22.1 26.1751 22.6 25.3751 23.2 25.3751H32.3C33 25.3751 33.5 26.1751 33.2 26.8751ZM38.3 32.5751C38.3 33.3751 37.4 33.4751 36.6 33.8751V25.9751C37.3 26.3751 38.3 26.4751 38.3 27.2751V32.5751Z" fill="#FFC700"/>
</svg>
