<svg width="60" height="60" viewBox="0 0 60 60" fill="none" xmlns="http://www.w3.org/2000/svg">
<path d="M32.9168 11.0835C31.4585 11.396 30.3126 12.5418 30.0001 14.0002H32.9168V11.0835Z" fill="#FFC700"/>
<path d="M34.4791 11.0835V14.0002H37.3958C37.0833 12.5418 35.9375 11.396 34.4791 11.0835Z" fill="#FFC700"/>
<path d="M32.9168 18.4792V15.5625H30.0001C30.2085 17.0208 31.4585 18.1667 32.9168 18.4792Z" fill="#FFC700"/>
<path d="M37.3958 15.5625H34.4791V18.4792C35.9375 18.1667 37.0833 17.0208 37.3958 15.5625Z" fill="#FFC700"/>
<path d="M50 28.6872C46.25 27.8539 42.8125 30.6664 42.8125 34.4164C42.8125 37.2289 44.7917 39.5206 47.3958 40.1456C49.1667 36.7081 50 32.8539 50 28.6872Z" fill="#FFC700"/>
<path d="M48.2292 19.7292C44.5834 10.5625 35.5209 4 25 4C17.1875 4 10.2083 7.54167 5.62501 13.1667C7.70834 13.0625 9.89585 12.9583 12.1875 12.6458C12.7084 12.5417 13.2292 12.9583 13.3334 13.5833C13.4375 14.2083 13.0209 14.7292 12.3958 14.7292C9.47918 15.1458 6.66668 15.3542 3.95834 15.3542C3.4375 16.0833 3.02084 16.8125 2.70834 17.5417C7.29168 17.75 12.2917 17.3334 17.3959 16.2917C17.9167 16.1875 18.5417 16.5 18.6459 17.125C18.75 17.6459 18.4375 18.2709 17.8125 18.375C12.6042 19.4167 7.18751 20.0417 1.77084 19.625C1.45834 20.3542 1.25 20.9792 1.04167 21.7084C8.75001 22.5417 16.0417 21.2917 21.3542 19.9375C21.875 19.8334 22.5 20.1459 22.6042 20.6667C22.7084 21.1875 22.3959 21.8125 21.875 21.9167C14.8959 23.6875 7.50001 24.5209 0.520834 23.6875C0.416667 24.3125 0.3125 25.0417 0.208334 25.6667C8.12501 26.8125 17.0834 25.9792 26.0417 23.1667C26.5625 22.9584 27.1875 23.2709 27.3959 23.7917C27.6042 24.3125 27.2917 24.9375 26.7709 25.1459C18.125 27.8542 8.85418 29.1042 0 27.75C0 28.5834 0 29.3125 0 30.1459C11.7708 31.8125 35.5209 27.9584 48.2292 19.7292ZM33.6459 8.89584C36.875 8.89584 39.5834 11.5 39.5834 14.8333C39.5834 18.0625 36.9792 20.7709 33.6459 20.7709C30.3125 20.7709 27.7084 18.1667 27.7084 14.8333C27.8125 11.5 30.4167 8.89584 33.6459 8.89584Z" fill="#FFC700"/>
<path d="M41.25 34.4166C41.25 29.9374 45.3125 26.2916 49.8958 27.1249C49.7916 25.2499 49.375 23.4791 48.8541 21.7083C36.1458 29.6249 13.1249 34.1041 0.208252 32.4374C0.312419 33.0624 0.416585 33.6874 0.520752 34.3124C8.74993 35.7708 18.1249 35.0416 27.6041 31.9166C28.125 31.7083 28.75 32.0208 28.9583 32.5416C29.1666 33.0624 28.8541 33.6874 28.3333 33.8958C19.6874 36.7083 10.2083 37.8541 1.14575 36.4999C1.35409 37.2291 1.66659 37.9583 1.97909 38.6874C10.1041 40.0416 18.0208 38.9999 23.7499 37.6458C24.2708 37.5416 24.8958 37.8541 24.9999 38.3749C25.1041 38.8958 24.7916 39.5208 24.1666 39.6249C17.2916 41.1874 10.1041 41.8124 3.02076 40.8749C3.43742 41.7083 3.95826 42.4374 4.37492 43.1666C9.37493 43.7916 14.8958 43.6874 20.8333 42.7499C21.4583 42.6458 21.9791 43.0624 21.9791 43.5833C22.0833 44.1041 21.6666 44.7291 21.1458 44.7291C14.9999 45.7708 10.3124 45.7708 6.14576 45.4583C6.87493 46.2916 7.70826 47.125 8.5416 47.8541C12.1874 48.0625 16.0416 47.9583 20.1041 47.3333C20.6249 47.2291 21.2499 47.6458 21.2499 48.2708C21.3541 48.7916 20.9374 49.4166 20.3124 49.4166C17.2916 49.8333 14.3749 50.0416 11.3541 50.0416C15.3124 52.5416 19.8958 54.1041 24.8958 54.1041C34.1666 54.1041 42.1875 49.1041 46.5625 41.6041C43.5416 40.6666 41.25 37.8541 41.25 34.4166ZM35.3125 48.8958C32.5 48.8958 30.2083 46.6041 30.2083 43.7916C30.2083 40.9791 32.5 38.6874 35.3125 38.6874C38.125 38.6874 40.4166 40.9791 40.4166 43.7916C40.3125 46.6041 38.125 48.8958 35.3125 48.8958Z" fill="#FFC700"/>
<path d="M35.3125 47.3333C37.2686 47.3333 38.8542 45.7477 38.8542 43.7917C38.8542 41.8357 37.2686 40.25 35.3125 40.25C33.3565 40.25 31.7709 41.8357 31.7709 43.7917C31.7709 45.7477 33.3565 47.3333 35.3125 47.3333Z" fill="#FFC700"/>
</svg>
