<svg width="60" height="60" viewBox="0 0 60 60" fill="none" xmlns="http://www.w3.org/2000/svg">
<g id="Swords">
<g id="Group">
<path id="Vector" d="M55.2005 46.2803C55.4476 46.0332 55.4476 45.539 55.2005 45.2919L48.2819 38.3733C48.0348 38.1262 47.5406 38.1262 47.2935 38.3733L47.1699 38.6204C46.9228 38.8675 46.9228 39.3617 47.1699 39.6088L54.0886 46.5274C54.3356 46.7745 54.8298 46.7745 55.0769 46.5274L55.2005 46.2803Z" fill="#4B526A"/>
<path id="Vector_2" d="M56.0654 44.5506C56.3125 44.7977 56.8066 44.7977 57.0537 44.5506L57.1773 44.427C57.4244 44.1799 57.4244 43.6857 57.1773 43.4387L50.2587 36.52C50.0116 36.2729 49.5174 36.2729 49.2703 36.52L49.1467 36.6436C48.8997 36.8907 48.8997 37.3849 49.1467 37.632L56.0654 44.5506Z" fill="#4B526A"/>
<path id="Vector_3" d="M46.4286 40.3501C46.1815 40.103 45.6873 40.103 45.4402 40.3501L45.3167 40.4737C45.0696 40.7208 45.0696 41.2149 45.3167 41.462L52.2353 48.3807C52.4824 48.6277 52.9766 48.6277 53.2237 48.3807L53.3472 48.2571C53.5943 48.01 53.5943 47.5158 53.3472 47.2687L46.4286 40.3501Z" fill="#4B526A"/>
<path id="Vector_4" d="M59.4012 46.4037C59.0305 46.0331 58.4128 46.0331 58.0422 46.4037L55.2006 49.2453C54.8299 49.6159 54.8299 50.2337 55.2006 50.6043C55.5712 50.9749 56.189 50.9749 56.5596 50.6043L59.4012 47.7627C59.7718 47.3921 59.7718 46.7744 59.4012 46.4037Z" fill="#4B526A"/>
<path id="Vector_5" d="M47.1699 33.4311L47.417 33.184C47.7877 32.8134 47.7877 32.1957 47.417 31.825L47.1699 31.5779C46.7993 31.2073 46.1815 31.2073 45.8109 31.5779L45.5638 31.825L42.2281 28.4893L39.3865 35.5314L40.6219 36.7669L40.3749 37.014C40.0042 37.3846 40.0042 38.0024 40.3749 38.373L40.6219 38.6201C40.9926 38.9907 41.6103 38.9907 41.981 38.6201L42.2281 38.373L43.4635 39.6085L48.4054 34.6666L47.1699 33.4311Z" fill="#4B526A"/>
<path id="Vector_6" d="M1.08698 45.539L1.82826 46.2803L0.345703 47.7628L3.55792 50.9751L5.04048 49.4925L5.65821 50.2338L10.353 45.539L5.65821 40.9678L1.08698 45.539Z" fill="#4B526A"/>
<path id="Vector_7" d="M8.45342 38.1284L7.05566 39.5261L11.6857 44.1562L13.0835 42.7584L8.45342 38.1284Z" fill="#4B526A"/>
<path id="Vector_8" d="M11.2264 35.4328L9.82861 36.8306L14.4587 41.4606L15.8564 40.0629L11.2264 35.4328Z" fill="#4B526A"/>
<path id="Vector_9" d="M13.3001 32.0385L11.9023 33.4363L17.8428 39.3768L19.2406 37.979L13.3001 32.0385Z" fill="#4B526A"/>
<path id="Vector_10" d="M33.5798 22.4358L31.2324 24.7832L38.5217 32.5666L40.1278 28.6131L33.5798 22.4358Z" fill="#4B526A"/>
<path id="Vector_11" d="M28.638 17.8643L19.2484 9.09253L17.7659 10.4515L26.6612 19.8411L28.638 17.8643Z" fill="#4B526A"/>
<path id="Vector_12" d="M41.8574 11.8107C42.3515 11.193 42.3515 10.2046 41.8574 9.71039L41.6103 9.4633C40.9925 8.84557 40.0042 8.84557 39.51 9.4633L16.5303 32.443L18.8777 34.7904L41.8574 11.8107Z" fill="#4B526A"/>
</g>
</g>
</svg>
