<svg width="60" height="60" viewBox="0 0 60 60" fill="none" xmlns="http://www.w3.org/2000/svg">
<path d="M55.2006 46.2803C55.4477 46.0332 55.4477 45.539 55.2006 45.2919L48.282 38.3733C48.0349 38.1262 47.5407 38.1262 47.2936 38.3733L47.1701 38.6204C46.923 38.8675 46.923 39.3617 47.1701 39.6088L54.0887 46.5274C54.3358 46.7745 54.83 46.7745 55.077 46.5274L55.2006 46.2803Z" fill="#FFC700"/>
<path d="M56.0654 44.5506C56.3125 44.7977 56.8066 44.7977 57.0537 44.5506L57.1773 44.427C57.4244 44.1799 57.4244 43.6857 57.1773 43.4387L50.2587 36.52C50.0116 36.2729 49.5174 36.2729 49.2703 36.52L49.1467 36.6436C48.8997 36.8907 48.8997 37.3849 49.1467 37.632L56.0654 44.5506Z" fill="#FFC700"/>
<path d="M46.4287 40.3501C46.1816 40.103 45.6874 40.103 45.4403 40.3501L45.3168 40.4737C45.0697 40.7208 45.0697 41.2149 45.3168 41.462L52.2354 48.3807C52.4825 48.6277 52.9767 48.6277 53.2238 48.3807L53.3473 48.2571C53.5944 48.01 53.5944 47.5158 53.3473 47.2687L46.4287 40.3501Z" fill="#FFC700"/>
<path d="M59.4012 46.4037C59.0305 46.0331 58.4128 46.0331 58.0422 46.4037L55.2006 49.2453C54.8299 49.6159 54.8299 50.2337 55.2006 50.6043C55.5712 50.9749 56.189 50.9749 56.5596 50.6043L59.4012 47.7627C59.7718 47.3921 59.7718 46.7744 59.4012 46.4037Z" fill="#FFC700"/>
<path d="M47.17 33.4311L47.4171 33.184C47.7878 32.8134 47.7878 32.1957 47.4171 31.825L47.17 31.5779C46.7994 31.2073 46.1817 31.2073 45.811 31.5779L45.5639 31.825L42.2282 28.4893L39.3866 35.5314L40.6221 36.7669L40.375 37.014C40.0043 37.3846 40.0043 38.0024 40.375 38.373L40.6221 38.6201C40.9927 38.9907 41.6104 38.9907 41.9811 38.6201L42.2282 38.373L43.4636 39.6085L48.4055 34.6666L47.17 33.4311Z" fill="#FFC700"/>
<path d="M1.08711 45.539L1.82839 46.2803L0.345825 47.7628L3.55804 50.9751L5.0406 49.4925L5.65833 50.2338L10.3531 45.539L5.65833 40.9678L1.08711 45.539Z" fill="#FFC700"/>
<path d="M8.45354 38.1284L7.05579 39.5261L11.6859 44.1562L13.0836 42.7584L8.45354 38.1284Z" fill="#FFC700"/>
<path d="M11.2265 35.4328L9.82874 36.8306L14.4588 41.4606L15.8566 40.0629L11.2265 35.4328Z" fill="#FFC700"/>
<path d="M13.3001 32.0385L11.9023 33.4363L17.8428 39.3768L19.2406 37.979L13.3001 32.0385Z" fill="#FFC700"/>
<path d="M33.5799 22.4358L31.2325 24.7832L38.5218 32.5666L40.1279 28.6131L33.5799 22.4358Z" fill="#FFC700"/>
<path d="M28.638 17.8643L19.2484 9.09253L17.7659 10.4515L26.6612 19.8411L28.638 17.8643Z" fill="#FFC700"/>
<path d="M41.8575 11.8107C42.3517 11.193 42.3517 10.2046 41.8575 9.71039L41.6104 9.4633C40.9926 8.84557 40.0043 8.84557 39.5101 9.4633L16.5304 32.443L18.8778 34.7904L41.8575 11.8107Z" fill="#FFC700"/>
</svg>
